<svg height="32" viewBox="0 0 1024 1024" width="32" xmlns="http://www.w3.org/2000/svg"><g fill="#f24e41"><path d="m676.18 544.72a45 45 0 0 1 1.14-63.33l158.12-153.61c17.63-17.15 26.48-39.36 24.91-62.52-1.51-22.24-13-43.08-31.6-57.54-12.94-13.41-98.75-95.72-254.24-95.72-226.65 0-411.06 179.45-411.06 400s184.4 400 411.06 400c143.39 0 232.05-76.28 244.18-87.36 19.16-14 31.36-34.75 33.53-57.16 2.25-23.14-5.88-45.62-22.85-63.29zm115.13 243.83a23.28 23.28 0 0 0 -2.65 2.19c-.79.76-80.81 76-214.14 76-201.69 0-365.77-159.12-365.77-354.71s164.08-354.74 365.76-354.74c144.75 0 221.59 81.77 222.29 82.55a24.7 24.7 0 0 0 3.34 3c9 6.67 14.39 15.72 15.05 25.46s-3.35 19.27-11.31 27l-158.1 153.63c-35.51 34.47-36.5 91.54-2.25 127.17l153.19 159.46c7.67 8 11.37 17.78 10.43 27.55s-6.59 18.95-15.84 25.44z"/><path d="m683.51 306.31a68.72 68.72 0 1 0 -68.73 68.52 68.59 68.59 0 0 0 68.73-68.52z"/></g></svg>