<svg height="32" viewBox="0 0 1034 1024" width="32.3125" xmlns="http://www.w3.org/2000/svg"><path d="m122.88 256h788.48q122.88 0 122.88 122.88v471.04q0 122.88-122.88 122.88h-788.48q-122.88 0-122.88-122.88v-471.04q0-122.88 122.88-122.88z" fill="#faad14"/><path d="m122.88 235.52h788.48q122.88 0 122.88 122.88v450.56q0 122.88-122.88 122.88h-788.48q-122.88 0-122.88-122.88v-450.56q0-122.88 122.88-122.88z" fill="#ffc53d"/><path d="m122.88 235.52h788.48q122.88 0 122.88 122.88v112.64q0 122.88-122.88 122.88h-788.48q-122.88 0-122.88-122.88v-112.64q0-122.88 122.88-122.88z" fill="#faad14"/><path d="m122.88 235.52h788.48q122.88 0 122.88 122.88v71.68q0 122.88-122.88 122.88h-788.48q-122.88 0-122.88-122.88v-71.68q0-122.88 122.88-122.88z" fill="#ffc53d"/><path d="m711.68 568.32h107.52v43.52a53.76 53.76 0 0 1 -107.52 0z" fill="#faad14"/><path d="m765.44 440.32c29.696 0 53.76 24.064 53.76 53.76v81.92a53.76 53.76 0 0 1 -107.52 0v-81.92c0-29.696 24.064-53.76 53.76-53.76z" fill="#fff1b8"/><path d="m220.16 568.32h107.52v43.52a53.76 53.76 0 0 1 -107.52 0z" fill="#faad14"/><g fill="#fff1b8"><path d="m273.92 440.32c29.696 0 53.76 24.064 53.76 53.76v81.92a53.76 53.76 0 0 1 -107.52 0v-81.92c0-29.696 24.064-53.76 53.76-53.76z"/><path d="m281.6 307.2a56.32 56.32 0 1 0 112.64 0 56.32 56.32 0 1 0 -112.64 0z"/><path d="m640 307.2a56.32 56.32 0 1 0 112.64 0 56.32 56.32 0 1 0 -112.64 0z"/></g><path d="m368.64 307.2v-61.44c0-82.00192 66.47808-148.48 148.48-148.48s148.48 66.47808 148.48 148.48v61.44a30.72 30.72 0 0 0 61.44 0v-61.44c0-115.93728-93.98272-209.92-209.92-209.92s-209.92 93.98272-209.92 209.92v61.44a30.72 30.72 0 0 0 61.44 0z" fill="#faad14"/></svg>