<svg height="32" viewBox="0 0 1024 1024" width="32" xmlns="http://www.w3.org/2000/svg"><path d="m621 545c-17.67 0-32-14.33-32-32s14.33-32 32-32c37.5 0 68-30.5 68-68v-215c0-17.67 14.33-32 32-32s32 14.33 32 32v215c0 72.79-59.21 132-132 132z" fill="#ffd5ca"/><path d="m829 959h-215c-17.67 0-32-14.33-32-32s14.33-32 32-32h215c17.67 0 32 14.33 32 32s-14.33 32-32 32z" fill="#00c1a5"/><path d="m829 959c-17.67 0-32-14.33-32-32s14.33-32 32-32c37.5 0 68-30.5 68-68v-215c0-17.67 14.33-32 32-32s32 14.33 32 32v215c0 72.79-59.21 132-132 132z" fill="#ffd5ca"/><g fill="#00c1a5"><path d="m413 959h-215c-72.79 0-132-59.21-132-132v-215c0-72.79 59.21-132 132-132h315c17.67 0 32 14.33 32 32v315c0 72.79-59.21 132-132 132zm-215-415c-37.5 0-68 30.5-68 68v215c0 37.5 30.5 68 68 68h215c37.5 0 68-30.5 68-68v-283z"/><path d="m614 959c-72.79 0-132-59.21-132-132v-315c0-17.67 14.33-32 32-32h315c72.79 0 132 59.21 132 132 0 17.67-14.33 32-32 32s-32-14.33-32-32c0-37.5-30.5-68-68-68h-283v283c0 37.5 30.5 68 68 68 17.67 0 32 14.33 32 32s-14.33 32-32 32z"/><path d="m621 545h-215c-72.79 0-132-59.21-132-132v-215c0-72.79 59.21-132 132-132h215c72.79 0 132 59.21 132 132 0 17.67-14.33 32-32 32s-32-14.33-32-32c0-37.5-30.5-68-68-68h-215c-37.5 0-68 30.5-68 68v215c0 37.5 30.5 68 68 68h215c17.67 0 32 14.33 32 32s-14.33 32-32 32z"/></g><path d="m536.67 211.1c-2.46-6.04-7.25-11.12-13.76-13.76-12.79-5.19-27.37.97-32.57 13.76l-69 170c-5.19 12.79.97 27.37 13.76 32.57 3.08 1.25 6.26 1.84 9.39 1.84 9.88 0 19.23-5.89 23.17-15.6l7.92-19.51h75.83l7.92 19.51c3.94 9.71 13.3 15.6 23.17 15.6 3.13 0 6.31-.59 9.39-1.84 12.79-5.19 18.96-19.77 13.76-32.57zm-40.79 119.29 17.62-43.41 17.62 43.41zm-116.38 346.61c0-37.22-30.28-67.5-67.5-67.5h-62.5c-13.81 0-25 11.19-25 25v170c0 13.81 11.19 25 25 25h69.5c37.22 0 67.5-30.28 67.5-67.5 0-18.15-7.21-34.63-18.91-46.78 7.5-10.87 11.91-24.04 11.91-38.22zm-105-17.5h37.5c9.65 0 17.5 7.85 17.5 17.5s-7.85 17.5-17.5 17.5h-37.5zm44.5 120h-44.5v-35h44.5c9.65 0 17.5 7.85 17.5 17.5s-7.85 17.5-17.5 17.5zm460.45-44.12c-13.59-2.41-26.57 6.65-28.99 20.24-2.46 13.84-14.46 23.88-28.54 23.88-15.99 0-29-13.01-29-29v-62c0-15.99 13.01-29 29-29 14.08 0 26.08 10.04 28.54 23.87 2.42 13.59 15.39 22.65 28.99 20.24 13.59-2.42 22.66-15.39 20.24-28.99-6.7-37.74-39.41-65.13-77.77-65.13-43.56 0-79 35.44-79 79v62c0 43.56 35.44 79 79 79 38.36 0 71.06-27.39 77.77-65.13 2.41-13.58-6.65-26.56-20.24-28.98z" fill="#fff1b6"/></svg>